<?xml version="1.0" encoding="utf-8"?>
<svg xmlns="http://www.w3.org/2000/svg"
	xmlns:xlink="http://www.w3.org/1999/xlink"
	width="26px" height="26px" viewBox="0 0 26 26">
<path fillRule="evenodd" d="M 25.45 4.96C 25.84 5.21 26.07 5.67 26.01 6.16 26.01 6.16 24.5 15.48 24.5 15.48 24.41 16.16 23.78 16.64 23.1 16.54 23.1 16.54 23 16.53 23 16.53 23 16.53 7.75 16.53 7.75 16.53 7.75 16.53 8.13 19.06 8.13 19.06 8.13 19.06 21.66 19.06 21.66 19.06 22.31 19.06 22.84 19.59 22.84 20.25 22.84 20.25 22.84 20.37 22.84 20.37 22.84 21.03 22.31 21.56 21.66 21.56 21.66 21.56 7.18 21.56 7.18 21.56 7.18 21.56 7.14 21.57 7.14 21.57 6.45 21.68 5.81 21.22 5.7 20.54 5.7 20.54 3.14 3.68 3.14 3.68 3.09 3.32 3.19 2.98 3.4 2.72 3.4 2.72 1.31 2.72 1.31 2.72 0.59 2.72-0 2.13-0 1.4-0 1.4-0 1.31-0 1.31-0 0.59 0.59-0 1.31-0 1.31-0 4.44-0 4.44-0 5.16-0 5.75 0.59 5.75 1.31 5.75 1.31 5.75 1.4 5.75 1.4 5.75 1.84 5.54 2.21 5.22 2.45 5.29 2.5 5.33 2.56 5.39 2.62 5.39 2.62 24.72 2.62 24.72 2.62 25.41 2.62 25.97 3.19 25.97 3.88 25.97 3.88 25.97 3.97 25.97 3.97 25.97 4.38 25.75 4.73 25.45 4.96ZM 21.99 13.78C 21.99 13.78 22.56 10.28 22.56 10.28 22.56 10.28 17.5 10.28 17.5 10.28 17.5 10.28 17.5 13.78 17.5 13.78 17.5 13.78 21.99 13.78 21.99 13.78ZM 16.5 13.78C 16.5 13.78 16.5 10.28 16.5 10.28 16.5 10.28 12.22 10.28 12.22 10.28 12.22 10.28 12.22 13.78 12.22 13.78 12.22 13.78 16.5 13.78 16.5 13.78ZM 7.33 13.78C 7.33 13.78 11.22 13.78 11.22 13.78 11.22 13.78 11.22 10.28 11.22 10.28 11.22 10.28 6.8 10.28 6.8 10.28 6.8 10.28 7.33 13.78 7.33 13.78ZM 6.03 5.22C 6.03 5.22 6.64 9.27 6.64 9.27 6.67 9.26 6.7 9.25 6.73 9.25 6.73 9.25 11.22 9.25 11.22 9.25 11.22 9.25 11.22 5.22 11.22 5.22 11.22 5.22 6.03 5.22 6.03 5.22ZM 12.22 5.22C 12.22 5.22 12.22 9.25 12.22 9.25 12.22 9.25 16.5 9.25 16.5 9.25 16.5 9.25 16.5 5.22 16.5 5.22 16.5 5.22 12.22 5.22 12.22 5.22ZM 17.5 5.22C 17.5 5.22 17.5 9.25 17.5 9.25 17.5 9.25 22.72 9.25 22.72 9.25 22.72 9.25 23.28 5.79 23.28 5.79 23.31 5.57 23.41 5.38 23.54 5.22 23.54 5.22 17.5 5.22 17.5 5.22ZM 9.06 23.19C 10.13 23.19 11 23.82 11 24.59 11 25.37 10.13 26 9.06 26 7.99 26 7.12 25.37 7.12 24.59 7.12 23.82 7.99 23.19 9.06 23.19ZM 21.03 23.19C 22.1 23.19 22.97 23.82 22.97 24.59 22.97 25.37 22.1 26 21.03 26 19.96 26 19.09 25.37 19.09 24.59 19.09 23.82 19.96 23.19 21.03 23.19Z" fill="rgb(255,255,255)"/></svg>