<?xml version="1.0" encoding="utf-8"?>
<svg xmlns="http://www.w3.org/2000/svg"
	xmlns:xlink="http://www.w3.org/1999/xlink"
	width="58px" height="58px" viewBox="0 0 58 58">
<path fillRule="evenodd" d="M 48 56C 52.41 56 56 52.41 56 48 56 48 56 10 56 10 56 5.59 52.41 2 48 2 48 2 10 2 10 2 5.59 2 2 5.59 2 10 2 10 2 48 2 48 2 52.41 5.59 56 10 56 10 56 48 56 48 56M 33.6 14.99C 35.04 14.99 36.4 15.57 37.42 16.62 39.48 18.75 39.48 22.21 37.42 24.33 37.42 24.33 32.91 29 32.91 29 32.91 29 37.42 33.66 37.42 33.66 39.48 35.79 39.48 39.25 37.42 41.37 36.4 42.43 35.04 43.01 33.6 43.01 32.15 43.01 30.79 42.43 29.77 41.37 29.77 41.37 21.53 32.85 21.53 32.85 20.53 31.82 19.98 30.45 19.98 29 19.98 27.54 20.53 26.17 21.53 25.14 21.53 25.14 29.77 16.62 29.77 16.62 30.79 15.57 32.15 14.99 33.6 14.99M 48 58C 48 58 10 58 10 58 4.48 58 0 53.52 0 48 0 48 0 10 0 10 0 4.48 4.48-0 10-0 10-0 48-0 48-0 53.52-0 58 4.48 58 10 58 10 58 48 58 48 58 53.52 53.52 58 48 58 48 58 48 58 48 58ZM 33.6 16.99C 32.73 16.99 31.87 17.33 31.21 18.01 31.21 18.01 22.97 26.53 22.97 26.53 22.31 27.21 21.98 28.1 21.98 29 21.98 29.89 22.31 30.78 22.97 31.46 22.97 31.46 31.21 39.98 31.21 39.98 31.87 40.66 32.73 41.01 33.6 41.01 34.46 41.01 35.32 40.66 35.98 39.98 37.3 38.62 37.3 36.41 35.98 35.05 35.98 35.05 30.13 29 30.13 29 30.13 29 35.98 22.94 35.98 22.94 37.3 21.58 37.3 19.37 35.98 18.01 35.32 17.33 34.46 16.99 33.6 16.99 33.6 16.99 33.6 16.99 33.6 16.99Z" fill="rgb(255,255,255)"/></svg>