<?xml version="1.0" encoding="utf-8"?>
<svg xmlns="http://www.w3.org/2000/svg"
	xmlns:xlink="http://www.w3.org/1999/xlink"
	width="160px" height="32px" viewBox="0 0 160 32">
<path fillRule="evenodd" d="M 150 32C 150 32 10 32 10 32 4.48 32-0 27.52-0 22-0 22-0 10-0 10-0 4.48 4.48-0 10-0 10-0 150-0 150-0 155.52-0 160 4.48 160 10 160 10 160 22 160 22 160 27.52 155.52 32 150 32ZM 15.02 8.8C 15.02 8.8 8.3 8.8 8.3 8.8 8.3 8.8 8.3 9.77 8.3 9.77 8.3 9.77 11.07 9.77 11.07 9.77 11.07 9.77 11.07 24.37 11.07 24.37 11.07 24.37 12.2 24.37 12.2 24.37 12.2 24.37 12.2 9.77 12.2 9.77 12.2 9.77 15.02 9.77 15.02 9.77 15.02 9.77 15.02 8.8 15.02 8.8ZM 27.33 8.8C 27.33 8.8 26.22 8.8 26.22 8.8 26.22 8.8 26.22 15.73 26.22 15.73 26.22 15.73 22.12 15.73 22.12 15.73 22.12 15.73 22.12 8.8 22.12 8.8 22.12 8.8 21.04 8.8 21.04 8.8 21.04 8.8 21.04 24.37 21.04 24.37 21.04 24.37 22.12 24.37 22.12 24.37 22.12 24.37 22.12 16.67 22.12 16.67 22.12 16.67 26.22 16.67 26.22 16.67 26.22 16.67 26.22 24.37 26.22 24.37 26.22 24.37 27.33 24.37 27.33 24.37 27.33 24.37 27.33 8.8 27.33 8.8ZM 40.12 8.8C 40.12 8.8 34.48 8.8 34.48 8.8 34.48 8.8 34.48 24.37 34.48 24.37 34.48 24.37 40.09 24.37 40.09 24.37 40.09 24.37 40.09 23.4 40.09 23.4 40.09 23.4 35.56 23.4 35.56 23.4 35.56 23.4 35.56 16.72 35.56 16.72 35.56 16.72 39.31 16.72 39.31 16.72 39.31 16.72 39.31 15.77 39.31 15.77 39.31 15.77 35.56 15.77 35.56 15.77 35.56 15.77 35.56 9.77 35.56 9.77 35.56 9.77 40.12 9.77 40.12 9.77 40.12 9.77 40.12 8.8 40.12 8.8ZM 56.9 18.81C 56.9 18 56.87 17.11 56.15 16.52 55.57 16.03 54.69 15.95 54.46 15.92 54.8 15.86 55.86 15.73 56.22 14.62 56.35 14.23 56.33 13.67 56.33 13.56 56.33 13.56 56.33 11.25 56.33 11.25 56.33 10.63 56.24 9.97 55.79 9.46 55.11 8.71 53.99 8.8 53.74 8.8 53.74 8.8 50.72 8.8 50.72 8.8 50.72 8.8 50.72 24.37 50.72 24.37 50.72 24.37 53.9 24.37 53.9 24.37 54.21 24.37 55.27 24.41 56.11 23.71 56.81 23.09 56.9 22.32 56.9 21.48 56.9 21.48 56.9 18.81 56.9 18.81ZM 64.81 8.8C 64.81 8.8 63.66 8.8 63.66 8.8 63.66 8.8 63.66 24.37 63.66 24.37 63.66 24.37 64.81 24.37 64.81 24.37 64.81 24.37 64.81 8.8 64.81 8.8ZM 78.25 8.8C 78.25 8.8 77.01 8.8 77.01 8.8 77.01 8.8 73.04 16.43 73.04 16.43 73.04 16.43 73.04 8.8 73.04 8.8 73.04 8.8 71.94 8.8 71.94 8.8 71.94 8.8 71.94 24.37 71.94 24.37 71.94 24.37 73.02 24.37 73.02 24.37 73.02 24.37 73.02 18.46 73.02 18.46 73.02 18.46 74.19 16.3 74.19 16.3 74.19 16.3 77.1 24.37 77.1 24.37 77.1 24.37 78.3 24.37 78.3 24.37 78.3 24.37 74.87 15 74.87 15 74.87 15 78.25 8.8 78.25 8.8ZM 90.09 8.8C 90.09 8.8 84.46 8.8 84.46 8.8 84.46 8.8 84.46 24.37 84.46 24.37 84.46 24.37 90.07 24.37 90.07 24.37 90.07 24.37 90.07 23.4 90.07 23.4 90.07 23.4 85.54 23.4 85.54 23.4 85.54 23.4 85.54 16.72 85.54 16.72 85.54 16.72 89.28 16.72 89.28 16.72 89.28 16.72 89.28 15.77 89.28 15.77 89.28 15.77 85.54 15.77 85.54 15.77 85.54 15.77 85.54 9.77 85.54 9.77 85.54 9.77 90.09 9.77 90.09 9.77 90.09 9.77 90.09 8.8 90.09 8.8ZM 107.1 9.77C 107.55 9.51 108.07 9.51 108.23 9.51 109.6 9.51 109.94 10.34 110.03 10.87 110.1 11.18 110.1 11.36 110.1 11.91 110.1 11.91 110.1 13.3 110.1 13.3 110.1 13.3 111.18 13.3 111.18 13.3 111.18 13.3 111.18 12.17 111.18 12.17 111.18 11.05 111.18 9.73 110.07 9.02 109.35 8.58 108.45 8.58 108.2 8.58 105.97 8.58 105.45 9.97 105.29 10.85 105.2 11.29 105.2 11.93 105.2 12.02 105.2 13.52 105.72 14.4 106.11 14.91 106.44 15.37 107.01 15.99 107.93 16.87 108.09 17 109.15 18 109.74 18.88 110.03 19.34 110.3 19.89 110.3 21.11 110.3 22.39 109.98 23.05 109.42 23.38 108.95 23.66 108.45 23.66 108.27 23.66 106.22 23.66 105.97 22.25 105.93 21.5 105.9 21.17 105.93 20.86 105.93 20.53 105.93 20.53 105.93 19.28 105.93 19.28 105.93 19.28 104.82 19.28 104.82 19.28 104.82 19.28 104.82 21.48 104.82 21.48 104.82 21.94 104.84 22.3 105 22.74 105.18 23.2 105.43 23.55 105.79 23.86 106.02 24.06 106.2 24.17 106.31 24.24 106.8 24.5 107.53 24.61 108.14 24.61 109.67 24.61 110.46 24.02 110.84 23.47 111.16 23 111.4 22.23 111.4 20.93 111.4 19.69 111.18 18.83 110.39 17.86 109.89 17.25 109.33 16.72 108.77 16.17 108.38 15.77 108.02 15.39 107.68 15 106.71 13.92 106.31 13.32 106.31 11.84 106.31 10.7 106.6 10.08 107.1 9.77ZM 124.46 8.8C 124.46 8.8 123.36 8.8 123.36 8.8 123.36 8.8 123.36 15.73 123.36 15.73 123.36 15.73 119.25 15.73 119.25 15.73 119.25 15.73 119.25 8.8 119.25 8.8 119.25 8.8 118.17 8.8 118.17 8.8 118.17 8.8 118.17 24.37 118.17 24.37 118.17 24.37 119.25 24.37 119.25 24.37 119.25 24.37 119.25 16.67 119.25 16.67 119.25 16.67 123.36 16.67 123.36 16.67 123.36 16.67 123.36 24.37 123.36 24.37 123.36 24.37 124.46 24.37 124.46 24.37 124.46 24.37 124.46 8.8 124.46 8.8ZM 137.95 12.59C 137.95 11.38 137.95 10.04 136.82 9.2 136.24 8.78 135.51 8.62 134.79 8.62 133.44 8.6 132.2 9.2 131.75 10.5 131.5 11.2 131.5 12.09 131.5 12.26 131.5 12.26 131.5 21.04 131.5 21.04 131.5 21.97 131.57 22.85 132.2 23.62 132.99 24.55 134.36 24.57 134.68 24.57 136.3 24.57 137.14 23.8 137.48 23.22 137.88 22.58 137.95 21.92 137.95 21.19 137.95 21.19 137.95 12.59 137.95 12.59ZM 151.23 12.26C 151.23 11.12 151.23 10.1 150.38 9.42 149.56 8.76 148.48 8.8 147.51 8.8 147.51 8.8 145.03 8.8 145.03 8.8 145.03 8.8 145.03 24.37 145.03 24.37 145.03 24.37 146.14 24.37 146.14 24.37 146.14 24.37 146.14 17.27 146.14 17.27 146.14 17.27 147.76 17.27 147.76 17.27 148.46 17.27 149.79 17.22 150.6 16.28 151.21 15.57 151.23 14.86 151.23 14.03 151.23 14.03 151.23 12.26 151.23 12.26ZM 147.92 16.36C 147.92 16.36 146.11 16.36 146.11 16.36 146.11 16.36 146.11 9.7 146.11 9.7 146.11 9.7 147.8 9.7 147.8 9.7 148.73 9.7 149.09 9.77 149.5 10.08 150.13 10.54 150.15 11.29 150.15 12.68 150.15 12.68 150.15 14.03 150.15 14.03 150.15 14.16 150.24 15.22 149.63 15.81 149.16 16.3 148.53 16.36 147.92 16.36ZM 134.75 23.6C 133.48 23.6 132.92 22.8 132.76 22.39 132.63 21.99 132.58 21.5 132.58 20.62 132.58 20.62 132.58 12.04 132.58 12.04 132.58 11.78 132.54 10.54 133.51 9.93 133.69 9.81 134.09 9.59 134.72 9.59 135.24 9.59 135.63 9.75 135.78 9.84 136.24 10.06 136.42 10.39 136.51 10.56 136.82 11.16 136.89 11.89 136.89 13.19 136.89 13.19 136.89 20.78 136.89 20.78 136.89 21.68 136.84 22.63 135.99 23.22 135.63 23.49 135.2 23.6 134.75 23.6ZM 53.72 23.42C 53.72 23.42 51.84 23.42 51.84 23.42 51.84 23.42 51.84 16.45 51.84 16.45 51.84 16.45 52.97 16.45 52.97 16.45 54.03 16.45 55.23 16.59 55.66 17.73 55.77 18.06 55.79 18.42 55.79 18.79 55.79 18.79 55.79 21 55.79 21 55.79 22.14 55.7 22.67 55.18 23.07 54.87 23.29 54.51 23.42 53.72 23.42ZM 52.9 15.5C 52.9 15.5 51.82 15.5 51.82 15.5 51.82 15.5 51.82 9.73 51.82 9.73 51.82 9.73 53.22 9.73 53.22 9.73 53.92 9.73 54.84 9.75 55.14 10.54 55.2 10.72 55.25 11.01 55.25 11.45 55.25 11.45 55.25 13.32 55.25 13.32 55.25 13.7 55.34 14.98 53.99 15.37 53.67 15.46 53.51 15.5 52.9 15.5Z" fill="rgb(255,255,255)"/></svg>