<?xml version="1.0" encoding="utf-8"?>
<svg xmlns="http://www.w3.org/2000/svg"
	xmlns:xlink="http://www.w3.org/1999/xlink"
	width="58px" height="58px" viewBox="0 0 58 58">
<path fillRule="evenodd" d="M 48 56C 52.41 56 56 52.41 56 48 56 48 56 10 56 10 56 5.59 52.41 2 48 2 48 2 10 2 10 2 5.59 2 2 5.59 2 10 2 10 2 48 2 48 2 52.41 5.59 56 10 56 10 56 48 56 48 56M 25.09 29C 25.09 29 20.58 24.33 20.58 24.33 18.52 22.21 18.52 18.75 20.58 16.62 21.6 15.57 22.96 14.99 24.4 14.99 25.85 14.99 27.21 15.57 28.23 16.62 28.23 16.62 36.47 25.14 36.47 25.14 37.47 26.17 38.02 27.54 38.02 29 38.02 30.45 37.47 31.82 36.47 32.85 36.47 32.85 28.23 41.37 28.23 41.37 27.21 42.43 25.85 43.01 24.4 43.01 22.96 43.01 21.6 42.43 20.58 41.37 18.52 39.25 18.52 35.79 20.58 33.66 20.58 33.66 25.09 29 25.09 29M 48 58C 48 58 10 58 10 58 4.48 58-0 53.52-0 48-0 48-0 10-0 10-0 4.48 4.48-0 10-0 10-0 48-0 48-0 53.52-0 58 4.48 58 10 58 10 58 48 58 48 58 53.52 53.52 58 48 58 48 58 48 58 48 58ZM 24.4 16.99C 23.54 16.99 22.68 17.33 22.02 18.01 20.7 19.37 20.7 21.58 22.02 22.94 22.02 22.94 27.87 29 27.87 29 27.87 29 22.02 35.05 22.02 35.05 20.7 36.41 20.7 38.62 22.02 39.98 22.68 40.66 23.54 41.01 24.4 41.01 25.27 41.01 26.13 40.66 26.79 39.98 26.79 39.98 35.03 31.46 35.03 31.46 35.69 30.78 36.02 29.89 36.02 29 36.02 28.1 35.69 27.21 35.03 26.53 35.03 26.53 26.79 18.01 26.79 18.01 26.13 17.33 25.27 16.99 24.4 16.99 24.4 16.99 24.4 16.99 24.4 16.99Z" fill="rgb(83,83,83)"/></svg>